<?xml version="1.0" encoding="UTF-8"?>
<!DOCTYPE svg PUBLIC "-//W3C//DTD SVG 1.1//EN" "http://www.w3.org/Graphics/SVG/1.1/DTD/svg11.dtd">
<!-- Creator: CorelDRAW -->
<svg xmlns="http://www.w3.org/2000/svg" xml:space="preserve" width="2048px" height="2048px" style="shape-rendering:geometricPrecision; text-rendering:geometricPrecision; image-rendering:optimizeQuality; fill-rule:evenodd; clip-rule:evenodd"
viewBox="0 0 2048 2048"
 xmlns:xlink="http://www.w3.org/1999/xlink">
 <defs>
  <style type="text/css">
   <![CDATA[
    .fil2 {fill:none}
    .fil1 {fill:#1E88E5}
    .fil0 {fill:#90CAF9}
    .fil7 {fill:#212121;fill-rule:nonzero}
    .fil6 {fill:#424242;fill-rule:nonzero}
    .fil5 {fill:#6D4C41;fill-rule:nonzero}
    .fil3 {fill:#F57F17;fill-rule:nonzero}
    .fil4 {fill:#FBC02D;fill-rule:nonzero}
   ]]>
  </style>
   <clipPath id="id0">
    <path d="M1024 0c565.539,0 1024,458.461 1024,1024 0,565.539 -458.461,1024 -1024,1024 -565.539,0 -1024,-458.461 -1024,-1024 0,-565.539 458.461,-1024 1024,-1024z"/>
   </clipPath>
 </defs>
 <g id="Layer_x0020_1">
  <metadata id="CorelCorpID_0Corel-Layer"/>
  <path class="fil0" d="M1024 0c565.539,0 1024,458.461 1024,1024 0,565.539 -458.461,1024 -1024,1024 -565.539,0 -1024,-458.461 -1024,-1024 0,-565.539 458.461,-1024 1024,-1024z"/>
  <g style="clip-path:url(#id0)">
   <g id="_341215528">
    <g>
     <polygon id="_3384482881" class="fil1" points="1438.21,608.608 2574.09,1744.49 2575.23,1745.95 2576.31,1747.46 2577.31,1749.02 2578.24,1750.64 2579.1,1752.3 2579.87,1754.01 2580.56,1755.76 2581.17,1757.55 2581.69,1759.37 2582.12,1761.24 2582.46,1763.13 2582.71,1765.06 2582.86,1767.01 2582.91,1768.99 1447.03,633.108 1446.98,631.128 1446.83,629.175 1446.58,627.25 1446.24,625.354 1445.81,623.491 1445.29,621.663 1444.68,619.874 1443.99,618.124 1443.21,616.418 1442.36,614.756 1441.43,613.141 1440.43,611.576 1439.35,610.066 "/>
     <polygon id="_338448144" class="fil1" points="1447.03,633.108 2582.91,1768.99 2582.91,1891.38 1447.03,755.502 "/>
     <polygon id="_338449344" class="fil1" points="1569,780.159 2704.88,1916.04 2705.86,1917.22 2706.81,1918.43 2707.74,1919.65 2708.63,1920.9 2709.5,1922.17 2710.34,1923.45 2711.14,1924.76 2711.92,1926.08 2712.66,1927.42 2713.37,1928.79 2714.04,1930.16 2714.68,1931.56 2715.29,1932.97 2715.86,1934.41 2716.4,1935.85 2716.9,1937.31 2717.37,1938.79 2717.79,1940.28 2718.18,1941.79 2718.53,1943.31 2718.84,1944.85 2719.12,1946.4 2719.35,1947.96 2719.54,1949.53 2719.69,1951.12 2719.8,1952.72 2719.86,1954.33 2719.88,1955.95 1584,820.064 1583.98,818.443 1583.91,816.834 1583.81,815.236 1583.66,813.65 1583.47,812.076 1583.23,810.514 1582.96,808.966 1582.65,807.431 1582.3,805.909 1581.91,804.402 1581.49,802.909 1581.02,801.432 1580.52,799.97 1579.98,798.523 1579.41,797.092 1578.8,795.679 1578.16,794.283 1577.49,792.903 1576.78,791.542 1576.03,790.198 1575.26,788.874 1574.46,787.569 1573.62,786.283 1572.75,785.017 1571.86,783.771 1570.93,782.546 1569.98,781.341 "/>
     <polygon id="_338449200" class="fil1" points="1584,820.064 2719.88,1955.95 2719.88,1956.48 2719.86,1957.06 2719.83,1957.7 2719.79,1958.39 2719.74,1959.14 2719.68,1959.94 2719.6,1960.8 2719.52,1961.71 1583.64,825.823 1583.72,824.913 1583.8,824.058 1583.86,823.257 1583.91,822.511 1583.95,821.819 1583.98,821.181 1584,820.596 "/>
     <polygon id="_338448816" class="fil1" points="1150.56,554.726 2286.44,1690.61 2288.04,1692.46 2289.55,1694.38 2290.98,1696.38 2292.3,1698.45 2293.53,1700.58 2294.66,1702.78 2295.68,1705.03 2296.6,1707.34 2297.4,1709.71 2298.09,1712.12 2298.66,1714.58 2299.11,1717.09 2299.43,1719.63 2299.63,1722.21 2299.7,1724.83 1163.82,588.947 1163.75,586.332 1163.55,583.751 1163.23,581.206 1162.78,578.702 1162.21,576.24 1161.52,573.825 1160.72,571.46 1159.8,569.148 1158.78,566.893 1157.65,564.697 1156.42,562.564 1155.1,560.497 1153.67,558.5 1152.16,556.575 "/>
     <polygon id="_338448840" class="fil1" points="1549.18,1180.77 2685.06,2316.66 2684.88,2318.34 2684.66,2320.01 2684.42,2321.67 2684.13,2323.32 2683.82,2324.95 2683.47,2326.58 2683.09,2328.2 2682.67,2329.8 2682.23,2331.39 2681.75,2332.96 2681.24,2334.52 2680.7,2336.07 2680.13,2337.6 2679.53,2339.11 2678.9,2340.61 2678.24,2342.09 2677.55,2343.55 2676.83,2344.99 2676.08,2346.42 2675.3,2347.82 2674.49,2349.2 2673.66,2350.57 2672.8,2351.91 2671.91,2353.23 2670.99,2354.53 2670.05,2355.8 2669.08,2357.05 2668.08,2358.28 2667.06,2359.48 2666.01,2360.65 2664.94,2361.8 2663.84,2362.93 1527.96,1227.05 1529.06,1225.92 1530.13,1224.77 1531.18,1223.6 1532.2,1222.39 1533.19,1221.17 1534.17,1219.92 1535.11,1218.64 1536.03,1217.35 1536.92,1216.03 1537.78,1214.68 1538.61,1213.32 1539.42,1211.94 1540.2,1210.53 1540.95,1209.11 1541.67,1207.67 1542.36,1206.2 1543.02,1204.73 1543.65,1203.23 1544.25,1201.71 1544.82,1200.19 1545.36,1198.64 1545.87,1197.08 1546.35,1195.5 1546.79,1193.92 1547.21,1192.31 1547.59,1190.7 1547.94,1189.07 1548.25,1187.43 1548.54,1185.78 1548.78,1184.12 1549,1182.45 "/>
     <polygon id="_338449800" class="fil1" points="1527.96,1227.05 2663.84,2362.93 2662.7,2364.04 2661.55,2365.12 2660.37,2366.17 2659.16,2367.2 2657.94,2368.19 2656.69,2369.16 2655.42,2370.1 2654.13,2371.01 2652.81,2371.88 2651.48,2372.73 2650.12,2373.54 2648.74,2374.32 2647.35,2375.07 2645.93,2375.78 2644.49,2376.46 2643.03,2377.1 2641.56,2377.72 2640.06,2378.29 2638.55,2378.83 2637.01,2379.33 2635.46,2379.79 2633.89,2380.22 2632.3,2380.61 2630.7,2380.96 2629.08,2381.27 2627.44,2381.54 2625.78,2381.77 2624.11,2381.96 2622.42,2382.11 2620.72,2382.22 2619,2382.28 2617.27,2382.31 1481.39,1246.42 1483.12,1246.4 1484.84,1246.34 1486.54,1246.23 1488.23,1246.08 1489.9,1245.89 1491.56,1245.66 1493.2,1245.39 1494.82,1245.08 1496.42,1244.73 1498.01,1244.34 1499.58,1243.91 1501.13,1243.45 1502.66,1242.95 1504.18,1242.41 1505.68,1241.83 1507.15,1241.22 1508.61,1240.58 1510.05,1239.9 1511.46,1239.18 1512.86,1238.44 1514.24,1237.66 1515.6,1236.84 1516.93,1236 1518.24,1235.12 1519.54,1234.22 1520.81,1233.28 1522.06,1232.31 1523.28,1231.32 1524.49,1230.29 1525.67,1229.24 1526.82,1228.15 "/>
     <polygon id="_338449464" class="fil1" points="640.569,639.909 1776.45,1775.79 1624.79,1775.79 488.908,639.909 "/>
     <polygon id="_338450088" class="fil1" points="825.297,1246.42 1961.18,2382.31 1976.52,2470.33 840.642,1334.45 "/>
     <polygon id="_338449560" class="fil1" points="488.908,639.909 1624.79,1775.79 1622.24,1775.66 1619.77,1775.28 1617.38,1774.67 1615.09,1773.83 1612.92,1772.78 1610.86,1771.54 1608.94,1770.1 1607.18,1768.5 471.294,632.613 473.064,634.221 474.982,635.654 477.036,636.902 479.213,637.952 481.502,638.789 483.889,639.402 486.362,639.78 "/>
     <polygon id="_338449584" class="fil1" points="671.553,597.013 1807.43,1732.9 1808.61,1734.11 1809.71,1735.39 1810.72,1736.75 1811.64,1738.18 1812.45,1739.68 676.573,603.794 675.754,602.301 674.838,600.872 673.829,599.511 672.733,598.224 "/>
     <polygon id="_338450112" class="fil1" points="676.573,603.794 1812.45,1739.68 1860.89,1817.78 725.008,681.901 "/>
     <polygon id="_338449704" class="fil1" points="725.089,681.851 1860.97,1817.73 1861.68,1818.95 1862.31,1820.2 1862.87,1821.46 1863.35,1822.74 1863.76,1824.03 1864.1,1825.34 1864.36,1826.66 1864.55,1827.98 728.665,692.093 728.476,690.773 728.214,689.457 727.88,688.151 727.472,686.856 726.989,685.576 726.432,684.314 725.799,683.07 "/>
     <polygon id="_338449680" class="fil1" points="728.665,692.093 1864.55,1827.98 1875.6,1891.38 739.719,755.502 "/>
     <polygon id="_338450064" class="fil1" points="1481.39,1246.42 2617.27,2382.31 1961.18,2382.31 825.297,1246.42 "/>
     <polygon id="_338449872" class="fil1" points="1228.92,1384.27 2364.8,2520.15 2142.65,2520.15 1006.77,1384.27 "/>
     <polygon id="_338450688" class="fil1" points="1364.39,1485 2500.27,2620.88 2498.8,2622.31 2497.3,2623.71 2495.77,2625.06 2494.21,2626.39 2492.61,2627.67 2490.99,2628.92 2489.33,2630.13 2487.64,2631.3 2485.93,2632.43 2484.18,2633.52 2482.41,2634.57 2480.61,2635.57 2478.78,2636.54 2476.93,2637.46 2475.05,2638.33 2473.15,2639.16 2471.23,2639.95 2469.28,2640.69 2467.31,2641.39 2465.31,2642.03 2463.3,2642.63 2461.27,2643.18 2459.21,2643.68 2457.14,2644.13 2455.05,2644.54 2452.94,2644.89 2450.81,2645.18 2448.67,2645.43 2446.51,2645.62 2444.34,2645.76 2442.15,2645.84 2439.95,2645.87 1304.07,1509.99 1306.27,1509.96 1308.46,1509.88 1310.63,1509.74 1312.79,1509.55 1314.93,1509.3 1317.06,1509 1319.17,1508.65 1321.26,1508.25 1323.33,1507.8 1325.38,1507.3 1327.42,1506.75 1329.43,1506.15 1331.42,1505.5 1333.4,1504.81 1335.34,1504.07 1337.27,1503.28 1339.17,1502.45 1341.05,1501.57 1342.9,1500.65 1344.73,1499.69 1346.53,1498.68 1348.3,1497.64 1350.04,1496.55 1351.76,1495.42 1353.45,1494.25 1355.11,1493.04 1356.73,1491.79 1358.33,1490.51 1359.89,1489.18 1361.42,1487.82 1362.92,1486.43 "/>
     <polygon id="_338450472" class="fil1" points="1006.77,1384.27 2142.65,2520.15 2143.25,2521.28 2143.83,2522.42 2144.4,2523.58 2144.94,2524.74 2145.48,2525.91 2145.99,2527.09 2146.49,2528.28 2146.97,2529.48 2147.43,2530.69 2147.88,2531.91 2148.3,2533.13 2148.71,2534.37 2149.1,2535.61 2149.47,2536.86 2149.83,2538.12 2150.16,2539.38 2150.47,2540.66 2150.77,2541.94 2151.05,2543.23 2151.31,2544.52 2151.54,2545.82 2151.76,2547.13 2151.96,2548.45 2152.13,2549.77 2152.29,2551.1 2152.43,2552.43 2152.55,2553.77 2152.64,2555.12 2152.71,2556.47 2152.77,2557.83 2152.8,2559.19 2152.81,2560.56 1016.93,1424.68 1016.92,1423.31 1016.89,1421.95 1016.83,1420.59 1016.76,1419.24 1016.66,1417.89 1016.55,1416.55 1016.41,1415.22 1016.25,1413.89 1016.08,1412.57 1015.88,1411.25 1015.66,1409.94 1015.42,1408.64 1015.17,1407.34 1014.89,1406.06 1014.59,1404.77 1014.28,1403.5 1013.95,1402.24 1013.59,1400.98 1013.22,1399.73 1012.83,1398.48 1012.42,1397.25 1012,1396.03 1011.55,1394.81 1011.09,1393.6 1010.61,1392.4 1010.11,1391.21 1009.6,1390.03 1009.06,1388.86 1008.51,1387.69 1007.95,1386.54 1007.37,1385.4 "/>
     <polygon id="_338450808" class="fil1" points="1016.93,1424.68 2152.81,2560.56 2152.78,2562.76 2152.7,2564.95 2152.56,2567.13 2152.37,2569.28 2152.13,2571.43 2151.83,2573.55 2151.48,2575.66 2151.08,2577.75 2150.63,2579.83 2150.13,2581.88 2149.57,2583.91 2148.98,2585.93 2148.33,2587.92 2147.63,2589.89 2146.89,2591.84 2146.11,2593.77 2145.27,2595.67 2144.4,2597.54 2143.48,2599.4 2142.51,2601.22 2141.51,2603.02 2140.46,2604.79 2139.37,2606.54 2138.24,2608.26 2137.07,2609.94 2135.86,2611.6 2134.61,2613.23 2133.33,2614.82 2132.01,2616.39 2130.65,2617.92 2129.25,2619.42 2127.82,2620.88 991.941,1485 993.372,1483.53 994.767,1482.04 996.125,1480.5 997.448,1478.94 998.733,1477.35 999.981,1475.72 1001.19,1474.06 1002.36,1472.37 1003.49,1470.66 1004.58,1468.91 1005.63,1467.14 1006.63,1465.34 1007.6,1463.51 1008.52,1461.66 1009.39,1459.78 1010.22,1457.88 1011.01,1455.96 1011.75,1454.01 1012.45,1452.04 1013.09,1450.05 1013.69,1448.03 1014.24,1446 1014.74,1443.94 1015.2,1441.87 1015.6,1439.78 1015.95,1437.67 1016.24,1435.54 1016.49,1433.4 1016.68,1431.24 1016.82,1429.07 1016.9,1426.88 "/>
     <polygon id="_338450736" class="fil1" points="856.481,1384.27 1992.36,2520.15 1955.9,2520.15 820.02,1384.27 "/>
     <polygon id="_338450352" class="fil1" points="931.622,1509.99 2067.5,2645.87 2065.3,2645.84 2063.11,2645.76 2060.94,2645.62 2058.78,2645.43 2056.64,2645.18 2054.51,2644.89 2052.4,2644.54 2050.31,2644.13 2048.24,2643.68 2046.19,2643.18 2044.15,2642.63 2042.14,2642.03 2040.15,2641.39 2038.17,2640.69 2036.23,2639.95 2034.3,2639.16 2032.4,2638.33 2030.52,2637.46 2028.67,2636.54 2026.84,2635.57 2025.04,2634.57 2023.27,2633.52 2021.53,2632.43 2019.81,2631.3 2018.12,2630.13 2016.47,2628.92 2014.84,2627.67 2013.24,2626.39 2011.68,2625.06 2010.15,2623.71 874.266,1487.82 875.798,1489.18 877.361,1490.51 878.957,1491.79 880.585,1493.04 882.242,1494.25 883.929,1495.42 885.646,1496.55 887.39,1497.64 889.163,1498.68 890.963,1499.69 892.789,1500.65 894.641,1501.57 896.518,1502.45 898.419,1503.28 900.346,1504.07 902.293,1504.81 904.264,1505.5 906.257,1506.15 908.271,1506.75 910.305,1507.3 912.359,1507.8 914.431,1508.25 916.523,1508.65 918.633,1509 920.759,1509.3 922.901,1509.55 925.06,1509.74 927.233,1509.88 929.421,1509.96 "/>
     <polygon id="_338450232" class="fil1" points="820.02,1384.27 1955.9,2520.15 1953.67,2520.08 1951.47,2519.81 1949.33,2519.35 1947.26,2518.71 1945.25,2517.89 1943.33,2516.91 1941.5,2515.76 1939.78,2514.47 1938.18,2513.03 802.299,1377.15 803.904,1378.59 805.623,1379.88 807.449,1381.02 809.37,1382.01 811.374,1382.82 813.452,1383.46 815.593,1383.92 817.785,1384.19 "/>
     <polygon id="_338450592" class="fil1" points="991.941,1485 2127.82,2620.88 2126.36,2622.31 2124.86,2623.71 2123.33,2625.06 2121.76,2626.39 2120.17,2627.67 2118.54,2628.92 2116.88,2630.13 2115.2,2631.3 2113.48,2632.43 2111.74,2633.52 2109.96,2634.57 2108.16,2635.57 2106.34,2636.54 2104.49,2637.46 2102.61,2638.33 2100.71,2639.16 2098.78,2639.95 2096.83,2640.69 2094.86,2641.39 2092.87,2642.03 2090.86,2642.63 2088.82,2643.18 2086.77,2643.68 2084.69,2644.13 2082.6,2644.54 2080.49,2644.89 2078.37,2645.18 2076.22,2645.43 2074.07,2645.62 2071.89,2645.76 2069.71,2645.84 2067.5,2645.87 931.622,1509.99 933.824,1509.96 936.011,1509.88 938.185,1509.74 940.344,1509.55 942.486,1509.3 944.612,1509 946.722,1508.65 948.813,1508.25 950.886,1507.8 952.94,1507.3 954.974,1506.75 956.988,1506.15 958.98,1505.5 960.952,1504.81 962.9,1504.07 964.826,1503.28 966.727,1502.45 968.604,1501.57 970.456,1500.65 972.283,1499.69 974.082,1498.68 975.855,1497.64 977.6,1496.55 979.317,1495.42 981.003,1494.25 982.661,1493.04 984.288,1491.79 985.883,1490.51 987.447,1489.18 988.979,1487.82 990.477,1486.43 "/>
     <polygon id="_338450448" class="fil1" points="1505.35,1341.74 2641.24,2477.63 2642.84,2479.39 2644.28,2481.31 2645.52,2483.37 2646.57,2485.54 2647.41,2487.83 2648.03,2490.22 2648.4,2492.69 2648.53,2495.24 1512.65,1359.36 1512.52,1356.81 1512.14,1354.34 1511.53,1351.95 1510.69,1349.66 1509.64,1347.48 1508.4,1345.43 1506.96,1343.51 "/>
     <polygon id="_338450856" class="fil1" points="1512.65,1359.36 2648.53,2495.24 2648.4,2497.79 2648.03,2500.26 2647.41,2502.65 2646.57,2504.93 2645.52,2507.11 2644.28,2509.17 2642.84,2511.08 2641.24,2512.85 2639.47,2514.46 2637.55,2515.89 2635.49,2517.14 2633.32,2518.19 2631.03,2519.03 2628.64,2519.64 2626.17,2520.02 2623.62,2520.15 1487.74,1384.27 1490.29,1384.14 1492.76,1383.76 1495.15,1383.15 1497.44,1382.31 1499.61,1381.26 1501.67,1380.01 1503.58,1378.58 1505.35,1376.97 1506.96,1375.2 1508.4,1373.28 1509.64,1371.23 1510.69,1369.05 1511.53,1366.76 1512.14,1364.38 1512.52,1361.9 "/>
     <polygon id="_338450616" class="fil1" points="1487.74,1384.27 2623.62,2520.15 2515.09,2520.15 1379.21,1384.27 "/>
     <polygon id="_338451024" class="fil1" points="1379.21,1384.27 2515.09,2520.15 2515.69,2521.28 2516.27,2522.42 2516.84,2523.58 2517.39,2524.74 2517.92,2525.91 2518.44,2527.09 2518.93,2528.28 2519.41,2529.48 2519.88,2530.69 2520.32,2531.91 2520.75,2533.13 2521.16,2534.37 2521.55,2535.61 2521.92,2536.86 2522.27,2538.12 2522.61,2539.38 2522.92,2540.66 2523.22,2541.94 2523.49,2543.23 2523.75,2544.52 2523.99,2545.82 2524.2,2547.13 2524.4,2548.45 2524.58,2549.77 2524.74,2551.1 2524.87,2552.43 2524.99,2553.77 2525.08,2555.12 2525.16,2556.47 2525.21,2557.83 2525.24,2559.19 2525.26,2560.56 1389.37,1424.68 1389.36,1423.31 1389.33,1421.95 1389.28,1420.59 1389.2,1419.24 1389.11,1417.89 1388.99,1416.55 1388.85,1415.22 1388.7,1413.89 1388.52,1412.57 1388.32,1411.25 1388.11,1409.94 1387.87,1408.64 1387.61,1407.34 1387.33,1406.06 1387.04,1404.77 1386.72,1403.5 1386.39,1402.24 1386.04,1400.98 1385.67,1399.73 1385.28,1398.48 1384.87,1397.25 1384.44,1396.03 1384,1394.81 1383.53,1393.6 1383.05,1392.4 1382.56,1391.21 1382.04,1390.03 1381.51,1388.86 1380.96,1387.69 1380.39,1386.54 1379.81,1385.4 "/>
     <polygon id="_338450976" class="fil1" points="1389.37,1424.68 2525.26,2560.56 2525.23,2562.76 2525.14,2564.95 2525.01,2567.13 2524.81,2569.28 2524.57,2571.43 2524.27,2573.55 2523.92,2575.66 2523.52,2577.75 2523.07,2579.83 2522.57,2581.88 2522.02,2583.91 2521.42,2585.93 2520.77,2587.92 2520.08,2589.89 2519.34,2591.84 2518.55,2593.77 2517.72,2595.67 2516.84,2597.54 2515.92,2599.4 2514.96,2601.22 2513.95,2603.02 2512.9,2604.79 2511.81,2606.54 2510.68,2608.26 2509.51,2609.94 2508.31,2611.6 2507.06,2613.23 2505.77,2614.82 2504.45,2616.39 2503.09,2617.92 2501.7,2619.42 2500.27,2620.88 1364.39,1485 1365.82,1483.53 1367.21,1482.04 1368.57,1480.5 1369.89,1478.94 1371.18,1477.35 1372.42,1475.72 1373.63,1474.06 1374.8,1472.37 1375.93,1470.66 1377.02,1468.91 1378.07,1467.14 1379.08,1465.34 1380.04,1463.51 1380.96,1461.66 1381.84,1459.78 1382.67,1457.88 1383.46,1455.96 1384.2,1454.01 1384.89,1452.04 1385.54,1450.05 1386.14,1448.03 1386.69,1446 1387.19,1443.94 1387.64,1441.87 1388.04,1439.78 1388.39,1437.67 1388.69,1435.54 1388.93,1433.4 1389.13,1431.24 1389.26,1429.07 1389.35,1426.88 "/>
     <polygon id="_338451528" class="fil1" points="1304.07,1509.99 2439.95,2645.87 2437.75,2645.84 2435.56,2645.76 2433.39,2645.62 2431.23,2645.43 2429.08,2645.18 2426.96,2644.89 2424.85,2644.54 2422.76,2644.13 2420.68,2643.68 2418.63,2643.18 2416.6,2642.63 2414.58,2642.03 2412.59,2641.39 2410.62,2640.69 2408.67,2639.95 2406.74,2639.16 2404.84,2638.33 2402.97,2637.46 2401.11,2636.54 2399.29,2635.57 2397.49,2634.57 2395.72,2633.52 2393.97,2632.43 2392.25,2631.3 2390.57,2630.13 2388.91,2628.92 2387.28,2627.67 2385.69,2626.39 2384.12,2625.06 2382.59,2623.71 2381.09,2622.31 1245.21,1486.43 1246.71,1487.82 1248.24,1489.18 1249.81,1490.51 1251.4,1491.79 1253.03,1493.04 1254.69,1494.25 1256.37,1495.42 1258.09,1496.55 1259.83,1497.64 1261.61,1498.68 1263.41,1499.69 1265.23,1500.65 1267.09,1501.57 1268.96,1502.45 1270.86,1503.28 1272.79,1504.07 1274.74,1504.81 1276.71,1505.5 1278.7,1506.15 1280.72,1506.75 1282.75,1507.3 1284.8,1507.8 1286.88,1508.25 1288.97,1508.65 1291.08,1509 1293.2,1509.3 1295.35,1509.55 1297.5,1509.74 1299.68,1509.88 1301.87,1509.96 "/>
     <polygon id="_338451288" class="fil1" points="1163.82,588.947 2299.7,1724.83 2299.7,1891.38 1163.82,755.502 "/>
     <polygon id="_338451144" class="fil1" points="1583.64,825.823 2719.52,1961.71 2685.06,2316.66 1549.18,1180.77 "/>
    </g>
    <path id="_341215648" class="fil1" d="M1225 594.561l183.481 0c10.6169,0 20.2595,4.33111 27.2362,11.3091 6.97914,6.97796 11.3102,16.6193 11.3102,27.2374l0 122.394 68.8229 0c1.62992,0 3.82205,0.135827 6.54213,0.399213 16.1882,1.56969 31.3323,8.85946 42.4134,19.7504 11.7331,11.5287 19.1965,27.0732 19.1965,44.4118 0,1.34882 -0.119291,3.25866 -0.362599,5.75906l-34.4599 354.951c-1.74331,17.9622 -9.37442,34.428 -21.2221,46.2733 -11.9646,11.9669 -27.9933,19.376 -46.5685,19.376l-656.091 0 15.3449 88.0241 647.098 0c13.7575,0 24.9095,11.1532 24.9095,24.9095 0,13.7563 -11.152,24.9095 -24.9095,24.9095l-108.53 0c6.48426,12.0295 10.1646,25.7929 10.1646,40.4138 0,23.5547 -9.5504,44.8807 -24.9886,60.3189 -15.437,15.4382 -36.7654,24.9874 -60.3189,24.9874 -23.5536,0 -44.8807,-9.54922 -60.3189,-24.9874 -15.4382,-15.4382 -24.9874,-36.7642 -24.9874,-60.3189 0,-14.6209 3.68032,-28.3843 10.1634,-40.4138l-222.158 0c6.48426,12.0295 10.1646,25.7929 10.1646,40.4138 0,23.5547 -9.54922,44.8807 -24.9886,60.3189 -15.437,15.4382 -36.7654,24.9874 -60.3189,24.9874 -23.5536,0 -44.8807,-9.54922 -60.3189,-24.9874 -15.437,-15.4382 -24.9874,-36.7642 -24.9874,-60.3189 0,-14.6209 3.68032,-28.3843 10.1646,-40.4138l-36.4607 0c-12.0083,0.151181 -22.6949,-8.42009 -24.8232,-20.6315l-114.982 -659.794 -39.6461 -63.9319 -151.661 0c-13.7563,0 -24.9095,-11.1532 -24.9095,-24.9095 0,-13.7575 11.1532,-24.9095 24.9095,-24.9095l165.414 0c9.7252,0 18.1488,5.57599 22.2508,13.7043l48.4359 78.1064 0.080315 -0.0496063c1.99606,3.21851 3.16654,6.71457 3.57638,10.2425l11.0539 63.4087 79.7894 0 0 -166.556c0,-14.0303 5.72481,-26.7697 14.9457,-35.9894 9.21969,-9.21969 21.9579,-14.9433 35.9894,-14.9433l242.437 0c14.0291,0 26.7697,5.72363 35.9894,14.9433 9.22087,9.21969 14.9457,21.9603 14.9457,35.9894l0 166.556 22.6358 0 0 -122.394c0,-10.6181 4.33229,-20.2595 11.3091,-27.2374 6.97914,-6.97796 16.6193,-11.3091 27.2386,-11.3091z"/>
   </g>
  </g>
  <path class="fil2" d="M1024 0c565.539,0 1024,458.461 1024,1024 0,565.539 -458.461,1024 -1024,1024 -565.539,0 -1024,-458.461 -1024,-1024 0,-565.539 458.461,-1024 1024,-1024z"/>
  <path class="fil3" d="M1186.45 770.544l0 -137.436c0,-10.6181 4.33229,-20.2595 11.3102,-27.2374 6.97796,-6.97796 16.6181,-11.3102 27.2374,-11.3102l183.48 0c10.6181,0 20.2606,4.33229 27.2386,11.3102 6.97796,6.97796 11.3091,16.6205 11.3091,27.2374l0 137.436c-102.491,0 -220.162,0 -260.575,0z"/>
  <path class="fil4" d="M819.51 770.544l0 -181.597c0,-14.0303 5.72363,-26.7697 14.9445,-35.9894 9.21969,-9.21969 21.9579,-14.9445 35.9894,-14.9445l242.437 0c14.0303,0 26.7697,5.72481 35.9906,14.9445 9.21969,9.21969 14.9433,21.9603 14.9433,35.9894l0 181.597c-135.425,0 -290.907,0 -344.305,0z"/>
  <path class="fil5" d="M488.909 590.09c-13.7575,0 -24.9106,11.1532 -24.9106,24.9095 0,13.7563 11.1532,24.9095 24.9106,24.9095l151.66 0 39.6461 63.9319 114.982 659.794c2.12835,12.2114 12.815,20.7827 24.8232,20.6315l667.72 0c13.7563,0 24.9095,-11.1532 24.9095,-24.9095 0,-13.7563 -11.1532,-24.9095 -24.9095,-24.9095l-647.098 0 -15.3449 -88.0241 656.091 0c18.5752,0 34.604,-7.40906 46.5685,-19.376 11.8476,-11.8465 19.4788,-28.311 21.2221,-46.2733l34.4611 -354.951c0.242126,-2.50158 0.361418,-4.41024 0.361418,-5.75906 0,-17.3386 -7.46339,-32.8831 -19.1965,-44.413 -11.0811,-10.8898 -26.2252,-18.1795 -42.4134,-19.7492 -2.72008,-0.264567 -4.91221,-0.399213 -6.54331,-0.399213l-776.129 0 -11.0539 -63.4087c-0.409843,-3.52796 -1.58032,-7.02402 -3.57638,-10.2425l-0.080315 0.0496063 -48.4359 -78.1064c-4.10197,-8.12835 -12.5244,-13.7043 -22.2508,-13.7043l-165.412 0z"/>
  <path class="fil6" d="M931.624 1339.37c23.5536,0 44.8807,9.5504 60.3189,24.9886 15.4382,15.437 24.9874,36.7654 24.9874,60.3189 0,23.5536 -9.54922,44.8807 -24.9874,60.3189 -15.4382,15.4382 -36.7654,24.9874 -60.3189,24.9874 -23.5547,0 -44.8819,-9.54922 -60.3189,-24.9874 -15.4382,-15.4382 -24.9886,-36.7654 -24.9886,-60.3189 0,-23.5536 9.5504,-44.8819 24.9886,-60.3189 15.437,-15.4382 36.7654,-24.9886 60.3189,-24.9886z"/>
  <path class="fil6" d="M1304.07 1339.37c23.5536,0 44.8807,9.5504 60.3189,24.9886 15.4382,15.437 24.9886,36.7654 24.9886,60.3189 0,23.5536 -9.5504,44.8807 -24.9886,60.3189 -15.4382,15.4382 -36.7654,24.9874 -60.3189,24.9874 -23.5536,0 -44.8807,-9.54922 -60.3189,-24.9874 -15.4382,-15.4382 -24.9874,-36.7654 -24.9874,-60.3189 0,-23.5536 9.54922,-44.8819 24.9874,-60.3189 15.4382,-15.4382 36.7654,-24.9886 60.3189,-24.9886z"/>
  <path class="fil7" d="M1304.07 1384.27c11.1591,0 21.2622,4.52363 28.5768,11.8382 7.31339,7.31339 11.8382,17.4177 11.8382,28.5756 0,11.1591 -4.52481,21.2634 -11.8382,28.5768 -7.31457,7.31457 -17.4177,11.8382 -28.5768,11.8382 -11.1591,0 -21.2622,-4.52363 -28.5768,-11.8382 -7.31339,-7.31339 -11.8382,-17.4177 -11.8382,-28.5768 0,-11.1579 4.52481,-21.2622 11.8382,-28.5756 7.31457,-7.31457 17.4177,-11.8382 28.5768,-11.8382z"/>
  <path class="fil7" d="M931.624 1384.27c11.1579,0 21.2622,4.52363 28.5756,11.8382 7.31457,7.31339 11.8382,17.4177 11.8382,28.5756 0,11.1591 -4.52363,21.2634 -11.8382,28.5768 -7.31339,7.31457 -17.4177,11.8382 -28.5756,11.8382 -11.1591,0 -21.2634,-4.52363 -28.5768,-11.8382 -7.31457,-7.31339 -11.8382,-17.4177 -11.8382,-28.5768 0,-11.1579 4.52363,-21.2622 11.8382,-28.5756 7.31339,-7.31457 17.4177,-11.8382 28.5768,-11.8382z"/>
 </g>
</svg>
